<svg width="54" height="45" viewBox="0 0 54 45" fill="none" xmlns="http://www.w3.org/2000/svg">
<path d="M25.8 15.6H25.7388C25.4368 15.6 25.1471 15.48 24.9335 15.2665C24.72 15.0529 24.6 14.7632 24.6 14.4612C24.6 14.1429 24.4736 13.8377 24.2485 13.6127C24.0235 13.3876 23.7183 13.2612 23.4 13.2612C23.0817 13.2612 22.7765 13.3876 22.5515 13.6127C22.3264 13.8377 22.2 14.1429 22.2 14.4612C22.2 15.3997 22.5728 16.2999 23.2365 16.9635C23.9001 17.6272 24.8003 18 25.7388 18H25.8V19.2C25.8 19.5183 25.9264 19.8235 26.1515 20.0485C26.3765 20.2736 26.6817 20.4 27 20.4C27.3183 20.4 27.6235 20.2736 27.8485 20.0485C28.0736 19.8235 28.2 19.5183 28.2 19.2V18C29.1548 18 30.0705 17.6207 30.7456 16.9456C31.4207 16.2705 31.8 15.3548 31.8 14.4C31.8 13.4452 31.4207 12.5295 30.7456 11.8544C30.0705 11.1793 29.1548 10.8 28.2 10.8V8.4H28.2264C28.8744 8.4 29.4 8.9256 29.4 9.5736C29.4 9.89186 29.5264 10.1971 29.7515 10.4221C29.9765 10.6472 30.2817 10.7736 30.6 10.7736C30.9183 10.7736 31.2235 10.6472 31.4485 10.4221C31.6736 10.1971 31.8 9.89186 31.8 9.5736C31.8 8.62582 31.4235 7.71686 30.7533 7.04668C30.0831 6.3765 29.1742 6 28.2264 6H28.2V4.8C28.2 4.48174 28.0736 4.17652 27.8485 3.95147C27.6235 3.72643 27.3183 3.6 27 3.6C26.6817 3.6 26.3765 3.72643 26.1515 3.95147C25.9264 4.17652 25.8 4.48174 25.8 4.8V6C25.3272 6 24.8591 6.09312 24.4223 6.27403C23.9856 6.45495 23.5887 6.72013 23.2544 7.05442C22.9201 7.38871 22.655 7.78557 22.474 8.22234C22.2931 8.65911 22.2 9.12724 22.2 9.6C22.2 10.0728 22.2931 10.5409 22.474 10.9777C22.655 11.4144 22.9201 11.8113 23.2544 12.1456C23.5887 12.4799 23.9856 12.7451 24.4223 12.926C24.8591 13.1069 25.3272 13.2 25.8 13.2V15.6ZM28.2 15.6V13.2C28.5183 13.2 28.8235 13.3264 29.0485 13.5515C29.2736 13.7765 29.4 14.0817 29.4 14.4C29.4 14.7183 29.2736 15.0235 29.0485 15.2485C28.8235 15.4736 28.5183 15.6 28.2 15.6ZM25.8 8.4V10.8C25.4817 10.8 25.1765 10.6736 24.9515 10.4485C24.7264 10.2235 24.6 9.91826 24.6 9.6C24.6 9.28174 24.7264 8.97652 24.9515 8.75147C25.1765 8.52643 25.4817 8.4 25.8 8.4V8.4ZM27 24C20.3724 24 15 18.6276 15 12C15 5.3724 20.3724 0 27 0C33.6276 0 39 5.3724 39 12C39 18.6276 33.6276 24 27 24Z" fill="#F1EFFE"/>
<path d="M5.376 41.182C4.71333 41.182 4.09033 41.0513 3.507 40.79C2.92367 40.524 2.41033 40.1577 1.967 39.691C1.52833 39.2243 1.183 38.6853 0.931 38.074C0.683667 37.458 0.56 36.8 0.56 36.1C0.56 35.3953 0.683667 34.7373 0.931 34.126C1.183 33.51 1.52833 32.971 1.967 32.509C2.41033 32.0423 2.92367 31.6783 3.507 31.417C4.09033 31.151 4.71333 31.018 5.376 31.018C6.16933 31.018 6.89967 31.2023 7.567 31.571C8.23433 31.935 8.78733 32.4227 9.226 33.034L7.7 33.853C7.42467 33.5123 7.08167 33.2393 6.671 33.034C6.265 32.8287 5.83333 32.726 5.376 32.726C4.94667 32.726 4.543 32.8147 4.165 32.992C3.787 33.1647 3.45567 33.4073 3.171 33.72C2.88633 34.028 2.66467 34.3873 2.506 34.798C2.34733 35.204 2.268 35.638 2.268 36.1C2.268 36.5667 2.34733 37.003 2.506 37.409C2.66933 37.815 2.89333 38.1743 3.178 38.487C3.46267 38.795 3.79167 39.0377 4.165 39.215C4.543 39.3877 4.94667 39.474 5.376 39.474C5.84267 39.474 6.27667 39.3713 6.678 39.166C7.084 38.956 7.42467 38.6807 7.7 38.34L9.226 39.166C8.78733 39.7727 8.23433 40.2603 7.567 40.629C6.89967 40.9977 6.16933 41.182 5.376 41.182ZM13.2579 41.182C12.6139 41.182 12.0259 41.0163 11.4939 40.685C10.9666 40.3537 10.5442 39.9103 10.2269 39.355C9.91422 38.795 9.75789 38.1767 9.75789 37.5C9.75789 36.9867 9.84889 36.5083 10.0309 36.065C10.2129 35.617 10.4626 35.225 10.7799 34.889C11.1019 34.5483 11.4752 34.2823 11.8999 34.091C12.3246 33.8997 12.7772 33.804 13.2579 33.804C13.9019 33.804 14.4876 33.9697 15.0149 34.301C15.5469 34.6323 15.9692 35.078 16.2819 35.638C16.5992 36.198 16.7579 36.8187 16.7579 37.5C16.7579 38.0087 16.6669 38.4847 16.4849 38.928C16.3029 39.3713 16.0509 39.7633 15.7289 40.104C15.4116 40.44 15.0406 40.7037 14.6159 40.895C14.1959 41.0863 13.7432 41.182 13.2579 41.182ZM13.2579 39.474C13.5986 39.474 13.9042 39.383 14.1749 39.201C14.4456 39.019 14.6579 38.7787 14.8119 38.48C14.9706 38.1813 15.0499 37.8547 15.0499 37.5C15.0499 37.136 14.9682 36.8047 14.8049 36.506C14.6462 36.2027 14.4292 35.9623 14.1539 35.785C13.8832 35.603 13.5846 35.512 13.2579 35.512C12.9219 35.512 12.6186 35.603 12.3479 35.785C12.0772 35.967 11.8626 36.2097 11.7039 36.513C11.5452 36.8163 11.4659 37.1453 11.4659 37.5C11.4659 37.8687 11.5476 38.2023 11.7109 38.501C11.8742 38.7997 12.0912 39.0377 12.3619 39.215C12.6372 39.3877 12.9359 39.474 13.2579 39.474ZM17.6974 34H19.4054V41H17.6974V34ZM18.5654 33.097C18.3134 33.097 18.1011 33.0153 17.9284 32.852C17.7558 32.684 17.6694 32.474 17.6694 32.222C17.6694 31.9747 17.7558 31.767 17.9284 31.599C18.1011 31.431 18.3111 31.347 18.5584 31.347C18.8058 31.347 19.0134 31.431 19.1814 31.599C19.3541 31.767 19.4404 31.9747 19.4404 32.222C19.4404 32.474 19.3564 32.684 19.1884 32.852C19.0204 33.0153 18.8128 33.097 18.5654 33.097ZM27.4454 36.576V41H25.7374V37.024C25.7374 36.7487 25.6697 36.499 25.5344 36.275C25.399 36.0463 25.217 35.8667 24.9884 35.736C24.7644 35.6007 24.5147 35.533 24.2394 35.533C23.964 35.533 23.712 35.6007 23.4834 35.736C23.2594 35.8667 23.0797 36.0463 22.9444 36.275C22.8137 36.499 22.7484 36.7487 22.7484 37.024V41H21.0404L21.0334 34H22.7414L22.7484 34.623C22.9864 34.371 23.271 34.1727 23.6024 34.028C23.9337 33.8787 24.2907 33.804 24.6734 33.804C25.182 33.804 25.6464 33.93 26.0664 34.182C26.4864 34.4293 26.82 34.763 27.0674 35.183C27.3194 35.5983 27.4454 36.0627 27.4454 36.576ZM32.2033 41V31.2H33.9113V39.292H37.9923V41H32.2033ZM39.5314 34H41.2394V41H39.5314V34ZM40.3994 33.097C40.1474 33.097 39.9351 33.0153 39.7624 32.852C39.5897 32.684 39.5034 32.474 39.5034 32.222C39.5034 31.9747 39.5897 31.767 39.7624 31.599C39.9351 31.431 40.1451 31.347 40.3924 31.347C40.6397 31.347 40.8474 31.431 41.0154 31.599C41.1881 31.767 41.2744 31.9747 41.2744 32.222C41.2744 32.474 41.1904 32.684 41.0224 32.852C40.8544 33.0153 40.6467 33.097 40.3994 33.097ZM44.8777 41.126C44.5137 41.1027 44.1613 41.0303 43.8207 40.909C43.4847 40.783 43.186 40.6127 42.9247 40.398C42.6633 40.1833 42.4627 39.9267 42.3227 39.628L43.7647 39.012C43.8207 39.1053 43.9117 39.2057 44.0377 39.313C44.1637 39.4157 44.313 39.502 44.4857 39.572C44.663 39.642 44.8567 39.677 45.0667 39.677C45.244 39.677 45.412 39.6537 45.5707 39.607C45.734 39.5557 45.8647 39.4787 45.9627 39.376C46.0653 39.2733 46.1167 39.1403 46.1167 38.977C46.1167 38.8043 46.056 38.6713 45.9347 38.578C45.818 38.48 45.6687 38.4077 45.4867 38.361C45.3093 38.3097 45.1367 38.263 44.9687 38.221C44.5253 38.1323 44.1123 37.9947 43.7297 37.808C43.3517 37.6213 43.046 37.381 42.8127 37.087C42.584 36.7883 42.4697 36.429 42.4697 36.009C42.4697 35.547 42.591 35.148 42.8337 34.812C43.081 34.476 43.4007 34.217 43.7927 34.035C44.1893 33.853 44.6163 33.762 45.0737 33.762C45.629 33.762 46.1377 33.8787 46.5997 34.112C47.0663 34.3407 47.435 34.665 47.7057 35.085L46.3547 35.883C46.2893 35.771 46.1983 35.6683 46.0817 35.575C45.965 35.477 45.832 35.3977 45.6827 35.337C45.5333 35.2717 45.377 35.2343 45.2137 35.225C45.0037 35.2157 44.8123 35.2343 44.6397 35.281C44.467 35.3277 44.327 35.407 44.2197 35.519C44.117 35.631 44.0657 35.7803 44.0657 35.967C44.0657 36.1443 44.1357 36.2773 44.2757 36.366C44.4157 36.45 44.5837 36.5153 44.7797 36.562C44.9803 36.6087 45.1717 36.66 45.3537 36.716C45.7643 36.8513 46.1493 37.017 46.5087 37.213C46.8727 37.409 47.1643 37.6493 47.3837 37.934C47.603 38.2187 47.708 38.5593 47.6987 38.956C47.6987 39.4087 47.5633 39.8053 47.2927 40.146C47.022 40.482 46.672 40.7387 46.2427 40.916C45.818 41.0933 45.363 41.1633 44.8777 41.126ZM52.6486 35.708H51.2906V41H49.5826V35.708H48.5466V34H49.5826V31.802H51.2906V34H52.6486V35.708Z" fill="#F1EFFE"/>
</svg>
