<svg width="42" height="45" viewBox="0 0 42 45" fill="none" xmlns="http://www.w3.org/2000/svg">
<path d="M28.5 22.5C28.5 23.3259 29.1741 24 30 24C30.8259 24 31.5 23.3259 31.5 22.5C31.5 21.6741 30 19.5 30 19.5C30 19.5 28.5 21.675 28.5 22.5ZM25.5 9H23.6934C22.9547 8.36719 22.0266 7.91719 21 7.6875V5.46094L19.5 5.29688L18 5.46094V7.6875C16.9734 7.92188 16.0453 8.37188 15.3047 9H9.75C9.33398 9 9 9.33281 9 9.75V14.25C9 14.6672 9.33398 15 9.75 15H14.0991C15.0656 16.7719 17.1094 18 19.5 18C21.8906 18 23.9339 16.7695 24.9 15H25.5C26.3259 15 27 15.6698 27 16.4958C27 17.3217 27.675 18 28.5 18H31.5C32.3259 18 33 17.3259 33 16.5C33 12.3562 29.6438 9 25.5 9ZM12.8264 4.49437L19.5 3.79125L26.175 4.49437C26.6203 4.54125 27 4.1775 27 3.70875V2.29172C27 1.82297 26.6191 1.46016 26.1741 1.50703L21 2.05078V0.75C21 0.333984 20.6672 0 20.25 0H18.75C18.3328 0 18 0.333984 18 0.75V2.05078L12.8264 1.50656C12.3811 1.45969 12 1.82297 12 2.29172V3.70875C12 4.1775 12.3811 4.54125 12.8264 4.49437V4.49437Z" fill="#D5D5D5"/>
<path d="M0.84 41V31.2H6.629V32.908H2.548V34.896H5.957V36.604H2.548V41H0.84ZM12.366 34H14.074V41H12.366L12.289 40.132C12.0977 40.4447 11.8434 40.699 11.526 40.895C11.2134 41.0863 10.8424 41.182 10.413 41.182C9.89505 41.182 9.40971 41.084 8.95705 40.888C8.50438 40.692 8.10538 40.4213 7.76005 40.076C7.41938 39.7307 7.15105 39.3317 6.95505 38.879C6.76371 38.4263 6.66805 37.941 6.66805 37.423C6.66805 36.9237 6.75905 36.4547 6.94105 36.016C7.12771 35.5773 7.38671 35.1923 7.71805 34.861C8.04938 34.5297 8.43205 34.2707 8.86605 34.084C9.30005 33.8973 9.76671 33.804 10.266 33.804C10.728 33.804 11.141 33.9067 11.505 34.112C11.8737 34.3173 12.1864 34.5787 12.443 34.896L12.366 34ZM10.371 39.537C10.735 39.537 11.057 39.446 11.337 39.264C11.617 39.082 11.8364 38.837 11.995 38.529C12.1537 38.2163 12.233 37.8733 12.233 37.5C12.233 37.122 12.1537 36.779 11.995 36.471C11.8364 36.1583 11.6147 35.911 11.33 35.729C11.05 35.547 10.7304 35.456 10.371 35.456C10.0117 35.456 9.68271 35.5493 9.38405 35.736C9.09005 35.918 8.85438 36.163 8.67705 36.471C8.50438 36.779 8.41805 37.122 8.41805 37.5C8.41805 37.878 8.50671 38.221 8.68405 38.529C8.86138 38.837 9.09705 39.082 9.39105 39.264C9.68971 39.446 10.0164 39.537 10.371 39.537ZM15.1889 38.41V34H16.8969V37.962C16.8969 38.2373 16.9646 38.4893 17.0999 38.718C17.2352 38.942 17.4149 39.1217 17.6389 39.257C17.8676 39.3877 18.1172 39.453 18.3879 39.453C18.6679 39.453 18.9199 39.3877 19.1439 39.257C19.3679 39.1217 19.5476 38.942 19.6829 38.718C19.8182 38.4893 19.8859 38.2373 19.8859 37.962V34H21.5939L21.6009 41H19.8929L19.8859 40.363C19.6432 40.615 19.3562 40.8157 19.0249 40.965C18.6936 41.1097 18.3389 41.182 17.9609 41.182C17.4522 41.182 16.9879 41.0583 16.5679 40.811C16.1479 40.559 15.8119 40.2253 15.5599 39.81C15.3126 39.39 15.1889 38.9233 15.1889 38.41ZM27.2327 38.893L28.7727 39.726C28.4507 40.1647 28.0471 40.517 27.5617 40.783C27.0764 41.049 26.5467 41.182 25.9727 41.182C25.3287 41.182 24.7407 41.0163 24.2087 40.685C23.6814 40.3537 23.2591 39.9103 22.9417 39.355C22.6291 38.795 22.4727 38.1767 22.4727 37.5C22.4727 36.9867 22.5637 36.5083 22.7457 36.065C22.9277 35.617 23.1774 35.225 23.4947 34.889C23.8167 34.5483 24.1901 34.2823 24.6147 34.091C25.0394 33.8997 25.4921 33.804 25.9727 33.804C26.5467 33.804 27.0764 33.937 27.5617 34.203C28.0471 34.469 28.4507 34.826 28.7727 35.274L27.2327 36.1C27.0694 35.9133 26.8757 35.7687 26.6517 35.666C26.4324 35.5633 26.2061 35.512 25.9727 35.512C25.6367 35.512 25.3334 35.6053 25.0627 35.792C24.7921 35.974 24.5774 36.2167 24.4187 36.52C24.2601 36.8187 24.1807 37.1453 24.1807 37.5C24.1807 37.85 24.2601 38.1767 24.4187 38.48C24.5774 38.7787 24.7921 39.019 25.0627 39.201C25.3334 39.383 25.6367 39.474 25.9727 39.474C26.2154 39.474 26.4464 39.4227 26.6657 39.32C26.8851 39.2127 27.0741 39.0703 27.2327 38.893ZM32.8907 41.182C32.2467 41.182 31.6587 41.0163 31.1267 40.685C30.5994 40.3537 30.177 39.908 29.8597 39.348C29.547 38.788 29.3907 38.1697 29.3907 37.493C29.3907 36.9843 29.4817 36.5083 29.6637 36.065C29.8457 35.617 30.0954 35.225 30.4127 34.889C30.7347 34.5483 31.108 34.2823 31.5327 34.091C31.9574 33.8997 32.41 33.804 32.8907 33.804C33.4367 33.804 33.936 33.9207 34.3887 34.154C34.846 34.3827 35.2334 34.6977 35.5507 35.099C35.868 35.5003 36.099 35.9577 36.2437 36.471C36.3884 36.9843 36.421 37.521 36.3417 38.081H31.2247C31.29 38.3423 31.3974 38.578 31.5467 38.788C31.696 38.9933 31.885 39.159 32.1137 39.285C32.3424 39.4063 32.6014 39.4693 32.8907 39.474C33.1894 39.4787 33.46 39.4087 33.7027 39.264C33.95 39.1147 34.1554 38.914 34.3187 38.662L36.0617 39.068C35.777 39.6887 35.3524 40.1973 34.7877 40.594C34.223 40.986 33.5907 41.182 32.8907 41.182ZM31.1687 36.8H34.6127C34.5614 36.52 34.4517 36.268 34.2837 36.044C34.1204 35.8153 33.9174 35.6333 33.6747 35.498C33.432 35.3627 33.1707 35.295 32.8907 35.295C32.6107 35.295 32.3517 35.3627 32.1137 35.498C31.8757 35.6287 31.6727 35.8083 31.5047 36.037C31.3414 36.261 31.2294 36.5153 31.1687 36.8ZM41.2326 35.708H39.8746V41H38.1666V35.708H37.1306V34H38.1666V31.802H39.8746V34H41.2326V35.708Z" fill="#D5D5D5"/>
</svg>
