<svg width="52" height="45" viewBox="0 0 52 45" fill="none" xmlns="http://www.w3.org/2000/svg">
<path d="M25.6055 8.93705C24.7926 8.93705 24.0313 9.23576 23.455 9.78167C22.8813 10.3276 22.5632 11.0486 22.5632 11.8185C22.5632 12.5885 22.8813 13.3095 23.455 13.8554C24.0313 14.3987 24.7926 14.7 25.6055 14.7C26.4184 14.7 27.1796 14.3987 27.756 13.8554C28.3296 13.3095 28.6477 12.5885 28.6477 11.8185C28.6477 11.0486 28.3296 10.3276 27.756 9.78167C27.4745 9.51298 27.1394 9.29995 26.7702 9.15496C26.401 9.00996 26.0051 8.93589 25.6055 8.93705V8.93705ZM36.8148 15.0013L35.0367 13.5619C35.121 13.0726 35.1645 12.573 35.1645 12.076C35.1645 11.5791 35.121 11.0769 35.0367 10.5902L36.8148 9.15078C36.9491 9.04187 37.0452 8.89682 37.0904 8.7349C37.1355 8.57299 37.1276 8.40189 37.0676 8.24436L37.0431 8.17741C36.5538 6.88136 35.8206 5.68 34.879 4.63156L34.8301 4.57748C34.7158 4.45015 34.5634 4.35862 34.393 4.31495C34.2227 4.27128 34.0424 4.27752 33.8758 4.33285L31.6682 5.07704C30.8526 4.44358 29.9446 3.94402 28.9604 3.59638L28.5335 1.41016C28.5013 1.24547 28.417 1.09395 28.2917 0.975744C28.1664 0.857537 28.0061 0.778234 27.8321 0.748372L27.7587 0.735497C26.345 0.493441 24.8551 0.493441 23.4414 0.735497L23.368 0.748372C23.194 0.778234 23.0337 0.857537 22.9084 0.975744C22.7831 1.09395 22.6987 1.24547 22.6665 1.41016L22.237 3.60668C21.2621 3.95709 20.354 4.45544 19.5482 5.08219L17.3242 4.33285C17.1578 4.27708 16.9773 4.27061 16.8069 4.31431C16.6364 4.358 16.484 4.44979 16.37 4.57748L16.321 4.63156C15.3812 5.68112 14.6481 6.88218 14.1569 8.17741L14.1325 8.24436C14.0101 8.56624 14.1107 8.92675 14.3853 9.15078L16.1851 10.6057C16.1008 11.0898 16.06 11.5842 16.06 12.0735C16.06 12.5679 16.1008 13.0623 16.1851 13.5413L14.3907 14.9962C14.2564 15.1051 14.1603 15.2501 14.1151 15.412C14.07 15.5739 14.0779 15.745 14.1379 15.9026L14.1624 15.9695C14.6545 17.2648 15.3804 18.4622 16.3265 19.5154L16.3754 19.5695C16.4897 19.6968 16.6421 19.7883 16.8125 19.832C16.9828 19.8757 17.1632 19.8694 17.3297 19.8141L19.5536 19.0647C20.3638 19.6956 21.2664 20.1952 22.2424 20.5403L22.672 22.7368C22.7042 22.9015 22.7885 23.053 22.9138 23.1712C23.0391 23.2894 23.1994 23.3687 23.3734 23.3986L23.4468 23.4114C24.8745 23.6548 26.3365 23.6548 27.7641 23.4114L27.8375 23.3986C28.0116 23.3687 28.1719 23.2894 28.2971 23.1712C28.4224 23.053 28.5068 22.9015 28.539 22.7368L28.9658 20.5506C29.95 20.2003 30.858 19.7034 31.6737 19.0699L33.8813 19.8141C34.0477 19.8699 34.2282 19.8763 34.3987 19.8326C34.5691 19.7889 34.7215 19.6971 34.8355 19.5695L34.8845 19.5154C35.8306 18.457 36.5565 17.2648 37.0486 15.9695L37.073 15.9026C37.19 15.5833 37.0894 15.2253 36.8148 15.0013ZM25.6055 16.3455C22.9656 16.3455 20.826 14.3189 20.826 11.8185C20.826 9.31816 22.9656 7.29159 25.6055 7.29159C28.2454 7.29159 30.385 9.31816 30.385 11.8185C30.385 14.3189 28.2454 16.3455 25.6055 16.3455Z" fill="#D5D5D5"/>
<path d="M4.368 41.182C3.82667 41.182 3.30633 41.098 2.807 40.93C2.31233 40.7573 1.87833 40.5123 1.505 40.195C1.13167 39.873 0.863333 39.488 0.7 39.04L2.303 38.452C2.36833 38.6387 2.50133 38.809 2.702 38.963C2.90267 39.117 3.14767 39.2407 3.437 39.334C3.72633 39.4273 4.03667 39.474 4.368 39.474C4.70867 39.474 5.026 39.4227 5.32 39.32C5.61867 39.2127 5.859 39.0657 6.041 38.879C6.223 38.6877 6.314 38.466 6.314 38.214C6.314 37.9573 6.21833 37.7473 6.027 37.584C5.83567 37.416 5.59067 37.283 5.292 37.185C4.99333 37.087 4.68533 37.0123 4.368 36.961C3.67267 36.8537 3.04967 36.688 2.499 36.464C1.94833 36.24 1.512 35.9297 1.19 35.533C0.872667 35.1363 0.714 34.623 0.714 33.993C0.714 33.4003 0.884333 32.8823 1.225 32.439C1.56567 31.9957 2.01367 31.6503 2.569 31.403C3.12433 31.1557 3.724 31.032 4.368 31.032C4.90467 31.032 5.42267 31.116 5.922 31.284C6.42133 31.452 6.85767 31.697 7.231 32.019C7.609 32.341 7.87967 32.7283 8.043 33.181L6.433 33.762C6.36767 33.5753 6.23467 33.405 6.034 33.251C5.83333 33.097 5.58833 32.9757 5.299 32.887C5.00967 32.7937 4.69933 32.747 4.368 32.747C4.03667 32.7423 3.72167 32.796 3.423 32.908C3.129 33.0153 2.88867 33.1623 2.702 33.349C2.51533 33.5357 2.422 33.7503 2.422 33.993C2.422 34.3057 2.50833 34.5413 2.681 34.7C2.85833 34.8587 3.094 34.9753 3.388 35.05C3.682 35.12 4.00867 35.1853 4.368 35.246C5.02133 35.3487 5.62567 35.5213 6.181 35.764C6.73633 36.0067 7.182 36.331 7.518 36.737C7.854 37.1383 8.022 37.6307 8.022 38.214C8.022 38.8067 7.854 39.327 7.518 39.775C7.182 40.2183 6.73633 40.5637 6.181 40.811C5.62567 41.0583 5.02133 41.182 4.368 41.182ZM12.4376 41.182C11.7936 41.182 11.2056 41.0163 10.6736 40.685C10.1462 40.3537 9.72391 39.908 9.40658 39.348C9.09391 38.788 8.93758 38.1697 8.93758 37.493C8.93758 36.9843 9.02858 36.5083 9.21058 36.065C9.39258 35.617 9.64224 35.225 9.95958 34.889C10.2816 34.5483 10.6549 34.2823 11.0796 34.091C11.5042 33.8997 11.9569 33.804 12.4376 33.804C12.9836 33.804 13.4829 33.9207 13.9356 34.154C14.3929 34.3827 14.7802 34.6977 15.0976 35.099C15.4149 35.5003 15.6459 35.9577 15.7906 36.471C15.9352 36.9843 15.9679 37.521 15.8886 38.081H10.7716C10.8369 38.3423 10.9442 38.578 11.0936 38.788C11.2429 38.9933 11.4319 39.159 11.6606 39.285C11.8892 39.4063 12.1482 39.4693 12.4376 39.474C12.7362 39.4787 13.0069 39.4087 13.2496 39.264C13.4969 39.1147 13.7022 38.914 13.8656 38.662L15.6086 39.068C15.3239 39.6887 14.8992 40.1973 14.3346 40.594C13.7699 40.986 13.1376 41.182 12.4376 41.182ZM10.7156 36.8H14.1596C14.1082 36.52 13.9986 36.268 13.8306 36.044C13.6672 35.8153 13.4642 35.6333 13.2216 35.498C12.9789 35.3627 12.7176 35.295 12.4376 35.295C12.1576 35.295 11.8986 35.3627 11.6606 35.498C11.4226 35.6287 11.2196 35.8083 11.0516 36.037C10.8882 36.261 10.7762 36.5153 10.7156 36.8ZM20.7795 35.708H19.4215V41H17.7135V35.708H16.6775V34H17.7135V31.802H19.4215V34H20.7795V35.708ZM25.7971 35.708H24.4391V41H22.7311V35.708H21.6951V34H22.7311V31.802H24.4391V34H25.7971V35.708ZM26.9533 34H28.6613V41H26.9533V34ZM27.8213 33.097C27.5693 33.097 27.3569 33.0153 27.1843 32.852C27.0116 32.684 26.9253 32.474 26.9253 32.222C26.9253 31.9747 27.0116 31.767 27.1843 31.599C27.3569 31.431 27.5669 31.347 27.8143 31.347C28.0616 31.347 28.2693 31.431 28.4373 31.599C28.6099 31.767 28.6963 31.9747 28.6963 32.222C28.6963 32.474 28.6123 32.684 28.4443 32.852C28.2763 33.0153 28.0686 33.097 27.8213 33.097ZM36.7012 36.576V41H34.9932V37.024C34.9932 36.7487 34.9256 36.499 34.7902 36.275C34.6549 36.0463 34.4729 35.8667 34.2442 35.736C34.0202 35.6007 33.7706 35.533 33.4952 35.533C33.2199 35.533 32.9679 35.6007 32.7392 35.736C32.5152 35.8667 32.3356 36.0463 32.2002 36.275C32.0696 36.499 32.0042 36.7487 32.0042 37.024V41H30.2962L30.2892 34H31.9972L32.0042 34.623C32.2422 34.371 32.5269 34.1727 32.8582 34.028C33.1896 33.8787 33.5466 33.804 33.9292 33.804C34.4379 33.804 34.9022 33.93 35.3222 34.182C35.7422 34.4293 36.0759 34.763 36.3232 35.183C36.5752 35.5983 36.7012 36.0627 36.7012 36.576ZM43.1531 34H44.8611V41.133C44.8611 41.637 44.7585 42.0943 44.5531 42.505C44.3478 42.9203 44.0678 43.275 43.7131 43.569C43.3585 43.8677 42.9525 44.0963 42.4951 44.255C42.0378 44.4183 41.5571 44.5 41.0531 44.5C40.5631 44.5 40.0918 44.3997 39.6391 44.199C39.1865 43.9983 38.7851 43.723 38.4351 43.373C38.0898 43.0277 37.8261 42.6333 37.6441 42.19L39.2051 41.483C39.2985 41.7397 39.4385 41.9637 39.6251 42.155C39.8165 42.351 40.0358 42.5027 40.2831 42.61C40.5305 42.722 40.7871 42.778 41.0531 42.778C41.3238 42.778 41.5828 42.7407 41.8301 42.666C42.0821 42.5913 42.3085 42.4817 42.5091 42.337C42.7098 42.197 42.8661 42.0243 42.9781 41.819C43.0948 41.6183 43.1531 41.3897 43.1531 41.133V40.146C42.9338 40.454 42.6585 40.7037 42.3271 40.895C41.9958 41.0863 41.6131 41.182 41.1791 41.182C40.6751 41.182 40.2038 41.0863 39.7651 40.895C39.3265 40.7037 38.9391 40.44 38.6031 40.104C38.2718 39.7633 38.0105 39.3713 37.8191 38.928C37.6325 38.4847 37.5391 38.0087 37.5391 37.5C37.5391 36.9913 37.6325 36.5153 37.8191 36.072C38.0105 35.6287 38.2718 35.239 38.6031 34.903C38.9391 34.5623 39.3265 34.2963 39.7651 34.105C40.2038 33.9137 40.6751 33.818 41.1791 33.818C41.6131 33.818 41.9958 33.9137 42.3271 34.105C42.6585 34.2917 42.9338 34.539 43.1531 34.847V34ZM41.2001 39.537C41.5595 39.537 41.8768 39.446 42.1521 39.264C42.4321 39.0773 42.6515 38.83 42.8101 38.522C42.9688 38.2093 43.0481 37.8687 43.0481 37.5C43.0481 37.1267 42.9665 36.786 42.8031 36.478C42.6445 36.17 42.4251 35.9227 42.1451 35.736C41.8698 35.5493 41.5548 35.456 41.2001 35.456C40.8501 35.456 40.5305 35.5493 40.2411 35.736C39.9518 35.918 39.7208 36.163 39.5481 36.471C39.3755 36.779 39.2891 37.122 39.2891 37.5C39.2891 37.878 39.3755 38.221 39.5481 38.529C39.7208 38.837 39.9518 39.082 40.2411 39.264C40.5305 39.446 40.8501 39.537 41.2001 39.537ZM48.6101 41.126C48.2461 41.1027 47.8937 41.0303 47.5531 40.909C47.2171 40.783 46.9184 40.6127 46.6571 40.398C46.3957 40.1833 46.1951 39.9267 46.0551 39.628L47.4971 39.012C47.5531 39.1053 47.6441 39.2057 47.7701 39.313C47.8961 39.4157 48.0454 39.502 48.2181 39.572C48.3954 39.642 48.5891 39.677 48.7991 39.677C48.9764 39.677 49.1444 39.6537 49.3031 39.607C49.4664 39.5557 49.5971 39.4787 49.6951 39.376C49.7977 39.2733 49.8491 39.1403 49.8491 38.977C49.8491 38.8043 49.7884 38.6713 49.6671 38.578C49.5504 38.48 49.4011 38.4077 49.2191 38.361C49.0417 38.3097 48.8691 38.263 48.7011 38.221C48.2577 38.1323 47.8447 37.9947 47.4621 37.808C47.0841 37.6213 46.7784 37.381 46.5451 37.087C46.3164 36.7883 46.2021 36.429 46.2021 36.009C46.2021 35.547 46.3234 35.148 46.5661 34.812C46.8134 34.476 47.1331 34.217 47.5251 34.035C47.9217 33.853 48.3487 33.762 48.8061 33.762C49.3614 33.762 49.8701 33.8787 50.3321 34.112C50.7987 34.3407 51.1674 34.665 51.4381 35.085L50.0871 35.883C50.0217 35.771 49.9307 35.6683 49.8141 35.575C49.6974 35.477 49.5644 35.3977 49.4151 35.337C49.2657 35.2717 49.1094 35.2343 48.9461 35.225C48.7361 35.2157 48.5447 35.2343 48.3721 35.281C48.1994 35.3277 48.0594 35.407 47.9521 35.519C47.8494 35.631 47.7981 35.7803 47.7981 35.967C47.7981 36.1443 47.8681 36.2773 48.0081 36.366C48.1481 36.45 48.3161 36.5153 48.5121 36.562C48.7127 36.6087 48.9041 36.66 49.0861 36.716C49.4967 36.8513 49.8817 37.017 50.2411 37.213C50.6051 37.409 50.8967 37.6493 51.1161 37.934C51.3354 38.2187 51.4404 38.5593 51.4311 38.956C51.4311 39.4087 51.2957 39.8053 51.0251 40.146C50.7544 40.482 50.4044 40.7387 49.9751 40.916C49.5504 41.0933 49.0954 41.1633 48.6101 41.126Z" fill="#D5D5D5"/>
</svg>
