<svg width="37" height="45" viewBox="0 0 37 45" fill="none" xmlns="http://www.w3.org/2000/svg">
<path d="M3.86801 41.182C3.32668 41.182 2.80635 41.098 2.30701 40.93C1.81235 40.7573 1.37835 40.5123 1.00501 40.195C0.631679 39.873 0.363346 39.488 0.200012 39.04L1.80301 38.452C1.86835 38.6387 2.00135 38.809 2.20201 38.963C2.40268 39.117 2.64768 39.2407 2.93701 39.334C3.22635 39.4273 3.53668 39.474 3.86801 39.474C4.20868 39.474 4.52601 39.4227 4.82001 39.32C5.11868 39.2127 5.35901 39.0657 5.54101 38.879C5.72301 38.6877 5.81401 38.466 5.81401 38.214C5.81401 37.9573 5.71835 37.7473 5.52701 37.584C5.33568 37.416 5.09068 37.283 4.79201 37.185C4.49335 37.087 4.18535 37.0123 3.86801 36.961C3.17268 36.8537 2.54968 36.688 1.99901 36.464C1.44835 36.24 1.01201 35.9297 0.690012 35.533C0.372679 35.1363 0.214012 34.623 0.214012 33.993C0.214012 33.4003 0.384346 32.8823 0.725012 32.439C1.06568 31.9957 1.51368 31.6503 2.06901 31.403C2.62435 31.1557 3.22401 31.032 3.86801 31.032C4.40468 31.032 4.92268 31.116 5.42201 31.284C5.92135 31.452 6.35768 31.697 6.73101 32.019C7.10901 32.341 7.37968 32.7283 7.54301 33.181L5.93301 33.762C5.86768 33.5753 5.73468 33.405 5.53401 33.251C5.33335 33.097 5.08835 32.9757 4.79901 32.887C4.50968 32.7937 4.19935 32.747 3.86801 32.747C3.53668 32.7423 3.22168 32.796 2.92301 32.908C2.62901 33.0153 2.38868 33.1623 2.20201 33.349C2.01535 33.5357 1.92201 33.7503 1.92201 33.993C1.92201 34.3057 2.00835 34.5413 2.18101 34.7C2.35835 34.8587 2.59401 34.9753 2.88801 35.05C3.18201 35.12 3.50868 35.1853 3.86801 35.246C4.52135 35.3487 5.12568 35.5213 5.68101 35.764C6.23635 36.0067 6.68201 36.331 7.01801 36.737C7.35401 37.1383 7.52201 37.6307 7.52201 38.214C7.52201 38.8067 7.35401 39.327 7.01801 39.775C6.68201 40.2183 6.23635 40.5637 5.68101 40.811C5.12568 41.0583 4.52135 41.182 3.86801 41.182Z" fill="#2D2D2D"/>
<path d="M12.4149 41H10.7209L8.3829 34H10.0559L11.5749 38.529L13.0869 34H14.7739L16.2859 38.529L17.8049 34H19.4779L17.1399 41H15.4459L13.9269 36.45L12.4149 41Z" fill="#2D2D2D"/>
<path d="M25.5243 34H27.2323V41H25.5243L25.4473 40.132C25.2559 40.4447 25.0016 40.699 24.6843 40.895C24.3716 41.0863 24.0006 41.182 23.5713 41.182C23.0533 41.182 22.5679 41.084 22.1153 40.888C21.6626 40.692 21.2636 40.4213 20.9183 40.076C20.5776 39.7307 20.3093 39.3317 20.1133 38.879C19.9219 38.4263 19.8263 37.941 19.8263 37.423C19.8263 36.9237 19.9173 36.4547 20.0993 36.016C20.2859 35.5773 20.5449 35.1923 20.8763 34.861C21.2076 34.5297 21.5903 34.2707 22.0243 34.084C22.4583 33.8973 22.9249 33.804 23.4243 33.804C23.8863 33.804 24.2993 33.9067 24.6633 34.112C25.0319 34.3173 25.3446 34.5787 25.6013 34.896L25.5243 34ZM23.5293 39.537C23.8933 39.537 24.2153 39.446 24.4953 39.264C24.7753 39.082 24.9946 38.837 25.1533 38.529C25.3119 38.2163 25.3913 37.8733 25.3913 37.5C25.3913 37.122 25.3119 36.779 25.1533 36.471C24.9946 36.1583 24.7729 35.911 24.4883 35.729C24.2083 35.547 23.8886 35.456 23.5293 35.456C23.1699 35.456 22.8409 35.5493 22.5423 35.736C22.2483 35.918 22.0126 36.163 21.8353 36.471C21.6626 36.779 21.5763 37.122 21.5763 37.5C21.5763 37.878 21.6649 38.221 21.8423 38.529C22.0196 38.837 22.2553 39.082 22.5493 39.264C22.8479 39.446 23.1746 39.537 23.5293 39.537Z" fill="#2D2D2D"/>
<path d="M30.3351 44.5H28.6271V34H30.3351V34.889C30.5638 34.5717 30.8438 34.315 31.1751 34.119C31.5111 33.9183 31.9031 33.818 32.3511 33.818C32.8645 33.818 33.3428 33.9137 33.7861 34.105C34.2295 34.2963 34.6191 34.5623 34.9551 34.903C35.2958 35.239 35.5595 35.6287 35.7461 36.072C35.9375 36.5153 36.0331 36.9913 36.0331 37.5C36.0331 38.0087 35.9375 38.487 35.7461 38.935C35.5595 39.383 35.2958 39.7773 34.9551 40.118C34.6191 40.454 34.2295 40.7177 33.7861 40.909C33.3428 41.1003 32.8645 41.196 32.3511 41.196C31.9031 41.196 31.5111 41.098 31.1751 40.902C30.8438 40.7013 30.5638 40.4423 30.3351 40.125V44.5ZM32.3301 35.463C31.9755 35.463 31.6581 35.5563 31.3781 35.743C31.0981 35.925 30.8788 36.17 30.7201 36.478C30.5615 36.786 30.4821 37.1267 30.4821 37.5C30.4821 37.8733 30.5615 38.2163 30.7201 38.529C30.8788 38.837 31.0981 39.0843 31.3781 39.271C31.6581 39.453 31.9755 39.544 32.3301 39.544C32.6895 39.544 33.0185 39.453 33.3171 39.271C33.6158 39.089 33.8538 38.844 34.0311 38.536C34.2085 38.2233 34.2971 37.878 34.2971 37.5C34.2971 37.1267 34.2085 36.786 34.0311 36.478C33.8538 36.17 33.6158 35.925 33.3171 35.743C33.0231 35.5563 32.6941 35.463 32.3301 35.463Z" fill="#2D2D2D"/>
<circle cx="18" cy="12" r="10.5" transform="rotate(90 18 12)" stroke="#575757" stroke-width="3"/>
<g filter="url(#filter0_d_2_22)">
<path d="M18 7.4C18 7.95229 17.5523 8.4 17 8.4L14.2 8.4C13.6477 8.4 13.2 8.84772 13.2 9.4L13.2 9.8C13.2 10.3523 13.6477 10.8 14.2 10.8L21.5858 10.8C22.4767 10.8 22.9229 9.72286 22.2929 9.09289L19.7071 6.50711C19.0771 5.87714 18 6.32331 18 7.21422L18 7.4ZM14.4142 13.2C13.5233 13.2 13.0771 14.2771 13.7071 14.9071L16.2929 17.4929C16.9229 18.1229 18 17.6767 18 16.7858L18 16.6C18 16.0477 18.4477 15.6 19 15.6L21.8 15.6C22.3523 15.6 22.8 15.1523 22.8 14.6L22.8 14.2C22.8 13.6477 22.3523 13.2 21.8 13.2L14.4142 13.2Z" fill="#575757"/>
</g>
<defs>
<filter id="filter0_d_2_22" x="7.20001" y="0.212219" width="29.6" height="31.5756" filterUnits="userSpaceOnUse" color-interpolation-filters="sRGB">
<feFlood flood-opacity="0" result="BackgroundImageFix"/>
<feColorMatrix in="SourceAlpha" type="matrix" values="0 0 0 0 0 0 0 0 0 0 0 0 0 0 0 0 0 0 127 0" result="hardAlpha"/>
<feOffset dx="4" dy="4"/>
<feGaussianBlur stdDeviation="5"/>
<feComposite in2="hardAlpha" operator="out"/>
<feColorMatrix type="matrix" values="0 0 0 0 0 0 0 0 0 0 0 0 0 0 0 0 0 0 0.05 0"/>
<feBlend mode="normal" in2="BackgroundImageFix" result="effect1_dropShadow_2_22"/>
<feBlend mode="normal" in="SourceGraphic" in2="effect1_dropShadow_2_22" result="shape"/>
</filter>
</defs>
</svg>
