<svg width="24" height="24" viewBox="0 0 24 24" fill="none" xmlns="http://www.w3.org/2000/svg">
<path d="M16.44 14.64C16.66 14.74 16.8852 14.75 17.1156 14.67C17.3452 14.59 17.5 14.44 17.58 14.22C17.74 13.86 17.85 13.4952 17.91 13.1256C17.97 12.7552 18 12.38 18 12C18 11.24 17.8552 10.4848 17.5656 9.7344C17.2752 8.9848 16.84 8.32 16.26 7.74C15.68 7.16 15.0252 6.73 14.2956 6.45C13.5652 6.17 12.82 6.03 12.06 6.03L12.6 5.49C12.78 5.31 12.8652 5.1 12.8556 4.86C12.8452 4.62 12.75 4.41 12.57 4.23C12.39 4.05 12.18 3.96 11.94 3.96C11.7 3.96 11.49 4.05 11.31 4.23L8.94 6.57C8.82 6.69 8.76 6.83 8.76 6.99C8.76 7.15 8.82 7.29 8.94 7.41L11.31 9.75C11.49 9.91 11.7 9.9948 11.94 10.0044C12.18 10.0148 12.39 9.93 12.57 9.75C12.75 9.57 12.84 9.36 12.84 9.12C12.84 8.88 12.75 8.67 12.57 8.49L11.88 7.8C12.42 7.8 12.97 7.9048 13.53 8.1144C14.09 8.3248 14.57 8.63 14.97 9.03C15.37 9.43 15.6752 9.89 15.8856 10.41C16.0952 10.93 16.2 11.45 16.2 11.97C16.2 12.21 16.1852 12.45 16.1556 12.69C16.1252 12.93 16.06 13.16 15.96 13.38C15.86 13.66 15.8552 13.9148 15.9456 14.1444C16.0352 14.3748 16.2 14.54 16.44 14.64V14.64ZM11.43 19.77C11.61 19.95 11.82 20.04 12.06 20.04C12.3 20.04 12.51 19.95 12.69 19.77L15.06 17.43C15.18 17.31 15.24 17.17 15.24 17.01C15.24 16.85 15.18 16.71 15.06 16.59L12.69 14.25C12.51 14.09 12.3 14.0048 12.06 13.9944C11.82 13.9848 11.61 14.07 11.43 14.25C11.25 14.43 11.16 14.64 11.16 14.88C11.16 15.12 11.25 15.33 11.43 15.51L12.09 16.17C11.53 16.19 10.9852 16.1 10.4556 15.9C9.9252 15.7 9.45 15.39 9.03 14.97C8.63 14.57 8.3248 14.11 8.1144 13.59C7.9048 13.07 7.8 12.55 7.8 12.03C7.8 11.77 7.8152 11.5248 7.8456 11.2944C7.8752 11.0648 7.94 10.83 8.04 10.59C8.12 10.37 8.13 10.1548 8.07 9.9444C8.01 9.7348 7.89 9.57 7.71 9.45C7.47 9.29 7.2148 9.25 6.9444 9.33C6.6748 9.41 6.49 9.57 6.39 9.81C6.23 10.17 6.1248 10.5248 6.0744 10.8744C6.0248 11.2248 6 11.6 6 12C6 12.76 6.15 13.51 6.45 14.25C6.75 14.99 7.19 15.65 7.77 16.23C8.35 16.81 9 17.2452 9.72 17.5356C10.44 17.8252 11.18 17.98 11.94 18L11.43 18.51C11.25 18.69 11.16 18.9 11.16 19.14C11.16 19.38 11.25 19.59 11.43 19.77V19.77ZM12 24C10.34 24 8.78 23.6848 7.32 23.0544C5.86 22.4248 4.59 21.57 3.51 20.49C2.43 19.41 1.5752 18.14 0.9456 16.68C0.3152 15.22 0 13.66 0 12C0 10.34 0.3152 8.78 0.9456 7.32C1.5752 5.86 2.43 4.59 3.51 3.51C4.59 2.43 5.86 1.5748 7.32 0.9444C8.78 0.3148 10.34 0 12 0C13.66 0 15.22 0.3148 16.68 0.9444C18.14 1.5748 19.41 2.43 20.49 3.51C21.57 4.59 22.4248 5.86 23.0544 7.32C23.6848 8.78 24 10.34 24 12C24 13.66 23.6848 15.22 23.0544 16.68C22.4248 18.14 21.57 19.41 20.49 20.49C19.41 21.57 18.14 22.4248 16.68 23.0544C15.22 23.6848 13.66 24 12 24ZM12 21.6C14.66 21.6 16.9252 20.6652 18.7956 18.7956C20.6652 16.9252 21.6 14.66 21.6 12C21.6 9.34 20.6652 7.0748 18.7956 5.2044C16.9252 3.3348 14.66 2.4 12 2.4C9.34 2.4 7.0752 3.3348 5.2056 5.2044C3.3352 7.0748 2.4 9.34 2.4 12C2.4 14.66 3.3352 16.9252 5.2056 18.7956C7.0752 20.6652 9.34 21.6 12 21.6Z" fill="#d5d5d5"/>
</svg>
