<svg width="39" height="45" viewBox="0 0 39 45" fill="none" xmlns="http://www.w3.org/2000/svg">
<circle cx="18.5" cy="12" r="10.5" stroke="#F8F8F8" stroke-width="3"/>
<g filter="url(#filter0_d_2265_9165)">
<path d="M13.8998 12C14.4521 12 14.8998 12.4477 14.8998 13V15.8C14.8998 16.3523 15.3475 16.8 15.8998 16.8H16.2998C16.8521 16.8 17.2998 16.3523 17.2998 15.8V8.41422C17.2998 7.52331 16.2227 7.07714 15.5927 7.70711L13.0069 10.2929C12.3769 10.9229 12.8231 12 13.714 12H13.8998ZM19.6998 15.5858C19.6998 16.4767 20.7769 16.9229 21.4069 16.2929L23.9927 13.7071C24.6227 13.0771 24.1765 12 23.2856 12H23.0998C22.5475 12 22.0998 11.5523 22.0998 11V8.2C22.0998 7.64771 21.6521 7.2 21.0998 7.2H20.6998C20.1475 7.2 19.6998 7.64771 19.6998 8.2V15.5858Z" fill="#F8F8F8"/>
</g>
<path d="M4.368 41.182C3.82667 41.182 3.30633 41.098 2.807 40.93C2.31233 40.7573 1.87833 40.5123 1.505 40.195C1.13167 39.873 0.863333 39.488 0.7 39.04L2.303 38.452C2.36833 38.6387 2.50133 38.809 2.702 38.963C2.90267 39.117 3.14767 39.2407 3.437 39.334C3.72633 39.4273 4.03667 39.474 4.368 39.474C4.70867 39.474 5.026 39.4227 5.32 39.32C5.61867 39.2127 5.859 39.0657 6.041 38.879C6.223 38.6877 6.314 38.466 6.314 38.214C6.314 37.9573 6.21833 37.7473 6.027 37.584C5.83567 37.416 5.59067 37.283 5.292 37.185C4.99333 37.087 4.68533 37.0123 4.368 36.961C3.67267 36.8537 3.04967 36.688 2.499 36.464C1.94833 36.24 1.512 35.9297 1.19 35.533C0.872667 35.1363 0.714 34.623 0.714 33.993C0.714 33.4003 0.884333 32.8823 1.225 32.439C1.56567 31.9957 2.01367 31.6503 2.569 31.403C3.12433 31.1557 3.724 31.032 4.368 31.032C4.90467 31.032 5.42267 31.116 5.922 31.284C6.42133 31.452 6.85767 31.697 7.231 32.019C7.609 32.341 7.87967 32.7283 8.043 33.181L6.433 33.762C6.36767 33.5753 6.23467 33.405 6.034 33.251C5.83333 33.097 5.58833 32.9757 5.299 32.887C5.00967 32.7937 4.69933 32.747 4.368 32.747C4.03667 32.7423 3.72167 32.796 3.423 32.908C3.129 33.0153 2.88867 33.1623 2.702 33.349C2.51533 33.5357 2.422 33.7503 2.422 33.993C2.422 34.3057 2.50833 34.5413 2.681 34.7C2.85833 34.8587 3.094 34.9753 3.388 35.05C3.682 35.12 4.00867 35.1853 4.368 35.246C5.02133 35.3487 5.62567 35.5213 6.181 35.764C6.73633 36.0067 7.182 36.331 7.518 36.737C7.854 37.1383 8.022 37.6307 8.022 38.214C8.022 38.8067 7.854 39.327 7.518 39.775C7.182 40.2183 6.73633 40.5637 6.181 40.811C5.62567 41.0583 5.02133 41.182 4.368 41.182ZM12.9149 41H11.2209L8.88289 34H10.5559L12.0749 38.529L13.5869 34H15.2739L16.7859 38.529L18.3049 34H19.9779L17.6399 41H15.9459L14.4269 36.45L12.9149 41ZM26.0243 34H27.7323V41H26.0243L25.9473 40.132C25.7559 40.4447 25.5016 40.699 25.1843 40.895C24.8716 41.0863 24.5006 41.182 24.0713 41.182C23.5533 41.182 23.0679 41.084 22.6153 40.888C22.1626 40.692 21.7636 40.4213 21.4183 40.076C21.0776 39.7307 20.8093 39.3317 20.6133 38.879C20.4219 38.4263 20.3263 37.941 20.3263 37.423C20.3263 36.9237 20.4173 36.4547 20.5993 36.016C20.7859 35.5773 21.0449 35.1923 21.3763 34.861C21.7076 34.5297 22.0903 34.2707 22.5243 34.084C22.9583 33.8973 23.4249 33.804 23.9243 33.804C24.3863 33.804 24.7993 33.9067 25.1633 34.112C25.5319 34.3173 25.8446 34.5787 26.1013 34.896L26.0243 34ZM24.0293 39.537C24.3933 39.537 24.7153 39.446 24.9953 39.264C25.2753 39.082 25.4946 38.837 25.6533 38.529C25.8119 38.2163 25.8913 37.8733 25.8913 37.5C25.8913 37.122 25.8119 36.779 25.6533 36.471C25.4946 36.1583 25.2729 35.911 24.9883 35.729C24.7083 35.547 24.3886 35.456 24.0293 35.456C23.6699 35.456 23.3409 35.5493 23.0423 35.736C22.7483 35.918 22.5126 36.163 22.3353 36.471C22.1626 36.779 22.0763 37.122 22.0763 37.5C22.0763 37.878 22.1649 38.221 22.3423 38.529C22.5196 38.837 22.7553 39.082 23.0493 39.264C23.3479 39.446 23.6746 39.537 24.0293 39.537ZM30.8351 44.5H29.1271V34H30.8351V34.889C31.0638 34.5717 31.3438 34.315 31.6751 34.119C32.0111 33.9183 32.4031 33.818 32.8511 33.818C33.3644 33.818 33.8428 33.9137 34.2861 34.105C34.7294 34.2963 35.1191 34.5623 35.4551 34.903C35.7958 35.239 36.0594 35.6287 36.2461 36.072C36.4374 36.5153 36.5331 36.9913 36.5331 37.5C36.5331 38.0087 36.4374 38.487 36.2461 38.935C36.0594 39.383 35.7958 39.7773 35.4551 40.118C35.1191 40.454 34.7294 40.7177 34.2861 40.909C33.8428 41.1003 33.3644 41.196 32.8511 41.196C32.4031 41.196 32.0111 41.098 31.6751 40.902C31.3438 40.7013 31.0638 40.4423 30.8351 40.125V44.5ZM32.8301 35.463C32.4754 35.463 32.1581 35.5563 31.8781 35.743C31.5981 35.925 31.3788 36.17 31.2201 36.478C31.0614 36.786 30.9821 37.1267 30.9821 37.5C30.9821 37.8733 31.0614 38.2163 31.2201 38.529C31.3788 38.837 31.5981 39.0843 31.8781 39.271C32.1581 39.453 32.4754 39.544 32.8301 39.544C33.1894 39.544 33.5184 39.453 33.8171 39.271C34.1158 39.089 34.3538 38.844 34.5311 38.536C34.7084 38.2233 34.7971 37.878 34.7971 37.5C34.7971 37.1267 34.7084 36.786 34.5311 36.478C34.3538 36.17 34.1158 35.925 33.8171 35.743C33.5231 35.5563 33.1941 35.463 32.8301 35.463Z" fill="#F1EFFE"/>
<defs>
<filter id="filter0_d_2265_9165" x="6.71191" y="1.19995" width="31.5752" height="29.6001" filterUnits="userSpaceOnUse" color-interpolation-filters="sRGB">
<feFlood flood-opacity="0" result="BackgroundImageFix"/>
<feColorMatrix in="SourceAlpha" type="matrix" values="0 0 0 0 0 0 0 0 0 0 0 0 0 0 0 0 0 0 127 0" result="hardAlpha"/>
<feOffset dx="4" dy="4"/>
<feGaussianBlur stdDeviation="5"/>
<feComposite in2="hardAlpha" operator="out"/>
<feColorMatrix type="matrix" values="0 0 0 0 0 0 0 0 0 0 0 0 0 0 0 0 0 0 0.05 0"/>
<feBlend mode="normal" in2="BackgroundImageFix" result="effect1_dropShadow_2265_9165"/>
<feBlend mode="normal" in="SourceGraphic" in2="effect1_dropShadow_2265_9165" result="shape"/>
</filter>
</defs>
</svg>
