<svg width="24" height="24" viewBox="0 0 24 24" fill="none" xmlns="http://www.w3.org/2000/svg">
<path d="M7.4 12C7.95228 12 8.4 12.4477 8.4 13V15.8C8.4 16.3523 8.84772 16.8 9.4 16.8H9.8C10.3523 16.8 10.8 16.3523 10.8 15.8V8.41422C10.8 7.52331 9.72286 7.07714 9.09289 7.70711L6.50711 10.2929C5.87714 10.9229 6.32331 12 7.21421 12H7.4ZM13.2 15.5858C13.2 16.4767 14.2771 16.9229 14.9071 16.2929L17.4929 13.7071C18.1229 13.0771 17.6767 12 16.7858 12H16.6C16.0477 12 15.6 11.5523 15.6 11V8.2C15.6 7.64771 15.1523 7.2 14.6 7.2H14.2C13.6477 7.2 13.2 7.64771 13.2 8.2V15.5858Z" fill="#F8F8F8"/>
<path fill-rule="evenodd" clip-rule="evenodd" d="M12 21C16.9706 21 21 16.9706 21 12C21 7.02944 16.9706 3 12 3C7.02944 3 3 7.02944 3 12C3 16.9706 7.02944 21 12 21ZM12 24C18.6274 24 24 18.6274 24 12C24 5.37258 18.6274 0 12 0C5.37258 0 0 5.37258 0 12C0 18.6274 5.37258 24 12 24Z" fill="#F8F8F8"/>
</svg>
